<svg width="300" height="300" viewBox="0 0 300 300" fill="none" xmlns="http://www.w3.org/2000/svg">
<path d="M269.94 239.094H250.068V239.244H269.94V239.094Z" fill="#EBEBEB"/>
<path d="M198.732 240.726H193.518V240.876H198.732V240.726Z" fill="#EBEBEB"/>
<path d="M249.467 233.526H237.953V233.676H249.467V233.526Z" fill="#EBEBEB"/>
<path d="M57.3906 234.534H31.4766V234.684H57.3906V234.534Z" fill="#EBEBEB"/>
<path d="M66.5343 234.534H62.7363V234.684H66.5343V234.534Z" fill="#EBEBEB"/>
<path d="M135.091 237.066H78.8828V237.216H135.091V237.066Z" fill="#EBEBEB"/>
<path d="M142.2 202.68H26.3518C25.4431 202.68 24.5717 202.319 23.9292 201.677C23.2867 201.034 22.9258 200.163 22.9258 199.254V36.396C22.9337 35.4926 23.2981 34.6288 23.9398 33.9928C24.5814 33.3568 25.4483 33 26.3518 33H142.2C143.108 33 143.98 33.361 144.622 34.0035C145.265 34.646 145.626 35.5174 145.626 36.426V199.254C145.626 200.163 145.265 201.034 144.622 201.677C143.98 202.319 143.108 202.68 142.2 202.68ZM26.3518 33.12C25.4834 33.1216 24.6511 33.4672 24.0371 34.0813C23.423 34.6953 23.0774 35.5276 23.0758 36.396V199.254C23.0774 200.122 23.423 200.955 24.0371 201.569C24.6511 202.183 25.4834 202.528 26.3518 202.53H142.2C143.068 202.528 143.901 202.183 144.515 201.569C145.129 200.955 145.474 200.122 145.476 199.254V36.396C145.474 35.5276 145.129 34.6953 144.515 34.0813C143.901 33.4672 143.068 33.1216 142.2 33.12H26.3518Z" fill="#EBEBEB"/>
<path d="M271.985 202.68H156.125C155.217 202.678 154.347 202.317 153.704 201.675C153.062 201.033 152.701 200.162 152.699 199.254V36.396C152.709 35.4931 153.074 34.6302 153.715 33.9946C154.356 33.3589 155.222 33.0015 156.125 33H271.985C272.887 33.0031 273.75 33.3613 274.389 33.997C275.029 34.6327 275.391 35.4947 275.399 36.396V199.254C275.399 200.161 275.04 201.03 274.4 201.672C273.76 202.314 272.892 202.677 271.985 202.68ZM156.125 33.12C155.257 33.1216 154.425 33.4672 153.81 34.0813C153.196 34.6953 152.851 35.5276 152.849 36.396V199.254C152.851 200.122 153.196 200.955 153.81 201.569C154.425 202.183 155.257 202.528 156.125 202.53H271.985C272.854 202.528 273.686 202.183 274.3 201.569C274.914 200.955 275.26 200.122 275.261 199.254V36.396C275.26 35.5276 274.914 34.6953 274.3 34.0813C273.686 33.4672 272.854 33.1216 271.985 33.12H156.125Z" fill="#EBEBEB"/>
<path d="M300 229.44H0V229.59H300V229.44Z" fill="#EBEBEB"/>
<path d="M226.698 129.096H261.672C262.786 129.094 263.882 128.814 264.861 128.283C265.84 127.751 266.671 126.985 267.28 126.052C267.889 125.12 268.256 124.05 268.349 122.94C268.441 121.83 268.256 120.715 267.81 119.694C265.488 114.36 260.55 111.468 256.086 115.494C249.372 121.494 249.69 109.836 241.656 111.474C234.63 112.908 235.596 119.826 231.294 121.248C226.992 122.67 221.052 127.506 226.698 129.096Z" fill="#FAFAFA"/>
<path d="M171.287 66.2404H196.799C197.611 66.24 198.41 66.038 199.124 65.6527C199.838 65.2674 200.446 64.7107 200.892 64.0327C201.338 63.3546 201.609 62.5764 201.68 61.7679C201.751 60.9594 201.62 60.1459 201.299 59.4004C199.601 55.5064 195.995 53.4004 192.743 56.3164C187.841 60.7204 188.069 52.1884 182.207 53.3884C177.077 54.4324 177.785 59.4844 174.641 60.5164C171.497 61.5484 167.171 65.0764 171.287 66.2404Z" fill="#FAFAFA"/>
<path d="M221.807 229.512H217.607V95.2025C217.611 91.5874 219.048 88.1213 221.603 85.5646C224.159 83.0078 227.624 81.5692 231.239 81.5645H234.953V85.7645H231.239C228.738 85.7676 226.34 86.7632 224.571 88.5327C222.803 90.3021 221.809 92.7009 221.807 95.2025V229.512Z" fill="#F0F0F0"/>
<path d="M250.877 60H234.953V104.988H250.877V60Z" fill="#EBEBEB"/>
<path d="M234.953 105H250.877V105.084C250.877 105.907 250.55 106.696 249.969 107.277C249.387 107.859 248.598 108.186 247.775 108.186H238.055C237.232 108.186 236.443 107.859 235.862 107.277C235.28 106.696 234.953 105.907 234.953 105.084V105Z" fill="#E6E6E6"/>
<path d="M242.916 74.2383C245.644 74.2383 247.854 72.0275 247.854 69.3003C247.854 66.5731 245.644 64.3623 242.916 64.3623C240.189 64.3623 237.979 66.5731 237.979 69.3003C237.979 72.0275 240.189 74.2383 242.916 74.2383Z" fill="#F0F0F0"/>
<path d="M242.916 73.0381C245.644 73.0381 247.854 70.8273 247.854 68.1001C247.854 65.3729 245.644 63.1621 242.916 63.1621C240.189 63.1621 237.979 65.3729 237.979 68.1001C237.979 70.8273 240.189 73.0381 242.916 73.0381Z" fill="#FAFAFA"/>
<path d="M242.916 87.7383C245.644 87.7383 247.854 85.5275 247.854 82.8003C247.854 80.0731 245.644 77.8623 242.916 77.8623C240.189 77.8623 237.979 80.0731 237.979 82.8003C237.979 85.5275 240.189 87.7383 242.916 87.7383Z" fill="#F0F0F0"/>
<path d="M242.916 86.5381C245.644 86.5381 247.854 84.3273 247.854 81.6001C247.854 78.8729 245.644 76.6621 242.916 76.6621C240.189 76.6621 237.979 78.8729 237.979 81.6001C237.979 84.3273 240.189 86.5381 242.916 86.5381Z" fill="#FAFAFA"/>
<path d="M242.916 101.238C245.644 101.238 247.854 99.0275 247.854 96.3003C247.854 93.5731 245.644 91.3623 242.916 91.3623C240.189 91.3623 237.979 93.5731 237.979 96.3003C237.979 99.0275 240.189 101.238 242.916 101.238Z" fill="#F0F0F0"/>
<path d="M242.916 100.038C245.644 100.038 247.854 97.8273 247.854 95.1001C247.854 92.3729 245.644 90.1621 242.916 90.1621C240.189 90.1621 237.979 92.3729 237.979 95.1001C237.979 97.8273 240.189 100.038 242.916 100.038Z" fill="#FAFAFA"/>
<path d="M262.146 190.23H234.432V202.326H262.146V190.23Z" fill="#EBEBEB"/>
<path d="M236.358 188.556H232.5V204H236.358V188.556Z" fill="#F5F5F5"/>
<path d="M264.073 188.556H260.215V204H264.073V188.556Z" fill="#F5F5F5"/>
<path d="M231.816 194.352H234.432V198.21H231.816C231.485 198.21 231.168 198.078 230.934 197.844C230.7 197.61 230.568 197.293 230.568 196.962V195.6C230.568 195.269 230.7 194.951 230.934 194.717C231.168 194.483 231.485 194.352 231.816 194.352Z" fill="#F5F5F5"/>
<path d="M264.75 198.21H262.134V194.352H264.75C265.081 194.352 265.398 194.483 265.633 194.717C265.867 194.952 265.998 195.269 265.998 195.6V196.962C265.998 197.293 265.867 197.61 265.633 197.844C265.398 198.078 265.081 198.21 264.75 198.21Z" fill="#F5F5F5"/>
<path d="M255.732 224.4H240.84V182.58C240.84 181.602 241.032 180.634 241.407 179.73C241.781 178.827 242.329 178.006 243.021 177.315C243.712 176.623 244.533 176.075 245.436 175.701C246.34 175.326 247.308 175.134 248.286 175.134C249.264 175.133 250.233 175.325 251.136 175.699C252.04 176.073 252.861 176.621 253.553 177.313C254.244 178.004 254.793 178.826 255.167 179.729C255.541 180.633 255.733 181.602 255.732 182.58V224.4Z" fill="#F5F5F5"/>
<path d="M241.842 221.886H254.736C255.222 221.887 255.704 221.983 256.152 222.171C256.601 222.358 257.008 222.632 257.35 222.977C257.693 223.322 257.963 223.732 258.147 224.182C258.331 224.632 258.424 225.114 258.42 225.6V229.542H238.152V225.6C238.149 225.113 238.242 224.631 238.426 224.18C238.61 223.73 238.882 223.32 239.225 222.975C239.568 222.63 239.975 222.356 240.425 222.169C240.874 221.982 241.356 221.886 241.842 221.886Z" fill="#EBEBEB"/>
<path d="M248.286 202.626C251.805 202.626 254.658 199.773 254.658 196.254C254.658 192.735 251.805 189.882 248.286 189.882C244.767 189.882 241.914 192.735 241.914 196.254C241.914 199.773 244.767 202.626 248.286 202.626Z" fill="#FAFAFA"/>
<path d="M249.804 196.254C249.805 196.555 249.717 196.849 249.551 197.099C249.385 197.35 249.148 197.545 248.871 197.661C248.593 197.777 248.288 197.808 247.993 197.75C247.698 197.692 247.427 197.548 247.214 197.336C247.001 197.124 246.856 196.853 246.797 196.559C246.738 196.264 246.768 195.958 246.883 195.681C246.997 195.403 247.192 195.166 247.442 194.998C247.691 194.831 247.985 194.742 248.286 194.742C248.687 194.742 249.072 194.901 249.357 195.185C249.641 195.468 249.802 195.853 249.804 196.254Z" fill="#EBEBEB"/>
<path d="M238.152 184.698C238.152 184.185 238.356 183.694 238.718 183.332C239.081 182.969 239.572 182.766 240.084 182.766H256.494C257.006 182.767 257.496 182.971 257.857 183.334C258.218 183.696 258.42 184.186 258.42 184.698C258.42 185.209 258.218 185.7 257.857 186.062C257.496 186.424 257.006 186.628 256.494 186.63H240.084C239.572 186.63 239.081 186.426 238.718 186.064C238.356 185.701 238.152 185.21 238.152 184.698Z" fill="#F0F0F0"/>
<path d="M245.045 206.094C245.557 206.094 246.047 206.296 246.409 206.657C246.771 207.019 246.976 207.508 246.977 208.02V217.998C246.977 218.251 246.927 218.503 246.83 218.737C246.733 218.971 246.591 219.184 246.411 219.364C246.232 219.543 246.019 219.686 245.785 219.783C245.55 219.88 245.299 219.93 245.045 219.93C244.534 219.928 244.044 219.724 243.683 219.362C243.322 219 243.119 218.509 243.119 217.998V208.02C243.119 207.509 243.322 207.019 243.683 206.658C244.044 206.297 244.534 206.094 245.045 206.094Z" fill="#EBEBEB"/>
<path d="M251.526 206.094C252.037 206.094 252.527 206.296 252.89 206.657C253.252 207.019 253.456 207.508 253.458 208.02V217.998C253.458 218.251 253.408 218.503 253.311 218.737C253.213 218.971 253.071 219.184 252.892 219.364C252.712 219.543 252.499 219.686 252.265 219.783C252.031 219.88 251.779 219.93 251.526 219.93C251.014 219.928 250.524 219.724 250.163 219.362C249.802 219 249.6 218.509 249.6 217.998V208.02C249.6 207.509 249.803 207.019 250.164 206.658C250.525 206.297 251.015 206.094 251.526 206.094Z" fill="#EBEBEB"/>
<path d="M43.2308 229.602H41.7548C41.6521 229.602 41.5505 229.581 41.4561 229.541C41.3616 229.501 41.2762 229.442 41.2051 229.368C41.1339 229.294 41.0784 229.207 41.0419 229.111C41.0055 229.015 40.9887 228.912 40.9928 228.81L42.6008 192.552H46.3808L43.9808 228.894C43.9673 229.084 43.8827 229.263 43.7438 229.394C43.6049 229.525 43.4218 229.599 43.2308 229.602Z" fill="#F0F0F0"/>
<path d="M49.4282 229.602H47.9522C47.8498 229.602 47.7484 229.581 47.6543 229.541C47.5601 229.501 47.4751 229.442 47.4045 229.368C47.3338 229.294 47.2788 229.206 47.243 229.11C47.2072 229.014 47.1913 228.912 47.1962 228.81L48.7862 192.552H52.5782L50.1782 228.894C50.166 229.085 50.0819 229.264 49.9427 229.395C49.8035 229.527 49.6196 229.601 49.4282 229.602Z" fill="#F0F0F0"/>
<path d="M66.648 229.602H68.124C68.2267 229.602 68.3283 229.581 68.4228 229.541C68.5172 229.501 68.6026 229.442 68.6738 229.368C68.7449 229.294 68.8004 229.207 68.8369 229.111C68.8734 229.015 68.8901 228.912 68.886 228.81L67.29 192.552H63.498L65.898 228.894C65.9102 229.085 65.9944 229.264 66.1336 229.395C66.2728 229.527 66.4566 229.601 66.648 229.602Z" fill="#F0F0F0"/>
<path d="M72.7556 229.602H74.2316C74.3343 229.602 74.4359 229.581 74.5303 229.541C74.6248 229.501 74.7102 229.442 74.7813 229.368C74.8525 229.294 74.908 229.207 74.9445 229.111C74.9809 229.015 74.9977 228.912 74.9936 228.81L73.4036 192.552H69.5996L71.9996 228.894C72.0118 229.086 72.0968 229.266 72.2373 229.398C72.3778 229.529 72.5632 229.602 72.7556 229.602Z" fill="#F0F0F0"/>
<path d="M52.7394 171.222H49.5234V188.214H52.7394V171.222Z" fill="#F0F0F0"/>
<path d="M66.9601 171.222H63.7441V188.214H66.9601V171.222Z" fill="#F0F0F0"/>
<path d="M77.8492 191.838C77.8492 195.594 69.1612 195.24 58.4452 195.24C47.7292 195.24 39.0352 195.594 39.0352 191.838C39.0352 188.082 47.7232 185.034 58.4452 185.034C69.1672 185.034 77.8492 188.076 77.8492 191.838Z" fill="#F5F5F5"/>
<path d="M67.6746 173.07H49.2006C47.7935 173.07 46.4382 172.539 45.405 171.584C44.3719 170.628 43.7368 169.319 43.6266 167.916L43.0266 160.548C42.9706 159.781 43.0731 159.012 43.3277 158.287C43.5824 157.562 43.9838 156.897 44.5068 156.334C45.0298 155.771 45.6633 155.322 46.3677 155.014C47.072 154.707 47.8322 154.548 48.6006 154.548H68.2146C68.9834 154.547 69.7439 154.706 70.4487 155.013C71.1535 155.32 71.7873 155.769 72.3105 156.332C72.8337 156.895 73.235 157.56 73.4894 158.286C73.7437 159.011 73.8456 159.781 73.7886 160.548L73.1886 167.916C73.0806 169.309 72.4545 170.611 71.4338 171.565C70.413 172.519 69.0718 173.056 67.6746 173.07Z" fill="#F5F5F5"/>
<path d="M62.9152 103.272H41.1172V120.456H62.9152V103.272Z" fill="#F0F0F0"/>
<path d="M41.1174 103.272H39.9414V120.456H41.1174V103.272Z" fill="#E0E0E0"/>
<path d="M60.6899 105.024H43.3379V118.704H60.6899V105.024Z" fill="#FAFAFA"/>
<path d="M59.2675 106.152H44.7715V117.582H59.2675V106.152Z" fill="#EBEBEB"/>
<path d="M91.4042 75.3838H67.4102V105.81H91.4042V75.3838Z" fill="#EBEBEB"/>
<path d="M67.4097 75.3838H66.2637V105.81H67.4097V75.3838Z" fill="#E0E0E0"/>
<path d="M88.9554 78.4863H69.8574V102.708H88.9554V78.4863Z" fill="#F5F5F5"/>
<path d="M87.3837 80.4844H71.4297V100.722H87.3837V80.4844Z" fill="#FAFAFA"/>
<path d="M76.248 87.5996C76.248 87.5996 79.068 91.5896 80.5201 91.5236C81.8461 91.4696 84.1201 87.5996 84.1201 87.5996C84.1201 87.5996 81.3001 83.6096 79.8481 83.6756C78.5041 83.7536 76.248 87.5996 76.248 87.5996Z" fill="#EBEBEB"/>
<path d="M83.6281 96.4562C84.4621 94.8482 80.1061 91.4702 78.2941 91.5482C76.6321 91.6202 73.1701 94.9262 73.8181 96.4562C74.7661 98.7182 82.5001 98.6342 83.6281 96.4562Z" fill="#F0F0F0"/>
<path d="M47.7909 94.2059C53.7722 94.2059 58.6209 87.4446 58.6209 79.104C58.6209 70.7633 53.7722 64.002 47.7909 64.002C41.8097 64.002 36.9609 70.7633 36.9609 79.104C36.9609 87.4446 41.8097 94.2059 47.7909 94.2059Z" fill="#E0E0E0"/>
<path d="M49.08 94.2059C55.0612 94.2059 59.91 87.4446 59.91 79.104C59.91 70.7633 55.0612 64.002 49.08 64.002C43.0988 64.002 38.25 70.7633 38.25 79.104C38.25 87.4446 43.0988 94.2059 49.08 94.2059Z" fill="#EBEBEB"/>
<path d="M49.0796 91.9682C54.1761 91.9682 58.3076 86.2088 58.3076 79.1042C58.3076 71.9996 54.1761 66.2402 49.0796 66.2402C43.9831 66.2402 39.8516 71.9996 39.8516 79.1042C39.8516 86.2088 43.9831 91.9682 49.0796 91.9682Z" fill="#E6E6E6"/>
<path d="M49.0799 90.6004C53.633 90.6004 57.3239 85.4535 57.3239 79.1044C57.3239 72.7553 53.633 67.6084 49.0799 67.6084C44.5269 67.6084 40.8359 72.7553 40.8359 79.1044C40.8359 85.4535 44.5269 90.6004 49.0799 90.6004Z" fill="#FAFAFA"/>
<path d="M51.6658 85.3496C52.5247 84.529 53.1966 83.5329 53.6356 82.4291C54.0746 81.3253 54.2705 80.1399 54.2098 78.9536C54.2098 78.9536 50.8078 78.5516 50.9098 84.2516C50.9098 84.2516 47.0758 80.2736 48.2098 77.7536C50.0098 73.8116 50.0098 73.8116 48.7258 71.3516C48.7258 71.3516 45.3838 72.7016 46.9258 77.2496C46.9564 78.4353 47.1358 79.6125 47.4598 80.7536C47.4598 80.7536 44.0938 77.5256 43.0078 79.6376C43.0078 79.6376 44.8078 83.0516 47.4598 81.6356C47.4418 81.6356 50.3998 86.8616 51.6658 85.3496Z" fill="#EBEBEB"/>
<path d="M147.107 254.226C211.357 254.226 263.441 251.185 263.441 247.434C263.441 243.682 211.357 240.642 147.107 240.642C82.8579 240.642 30.7734 243.682 30.7734 247.434C30.7734 251.185 82.8579 254.226 147.107 254.226Z" fill="#F5F5F5"/>
<path d="M193.068 117.366C191.454 115.686 190.308 112.566 189.75 110.556L187.2 116.64C187.61 117.113 187.907 117.673 188.069 118.278C188.231 118.883 188.254 119.517 188.136 120.132C188.136 120.186 188.046 121.206 186.336 122.25C186.336 122.25 186.642 128.406 190.308 127.536C193.974 126.666 195.966 119.358 195.966 119.358L196.23 117.288C196.23 117.288 194.562 118.692 193.068 117.366Z" fill="#FFC3BD"/>
<path opacity="0.1" d="M187.842 115.152L187.242 116.64C187.722 117.215 188.048 117.903 188.19 118.638C189.87 116.658 190.056 113.454 190.056 113.454L187.842 115.152Z" fill="black"/>
<path d="M161.227 144.762C161.227 144.762 171.121 145.164 175.513 143.964C179.905 142.764 183.637 135.078 183.637 135.078L178.627 132.312L173.647 139.722L161.239 141.708L157.675 139.2C157.675 139.2 150.475 137.664 150.475 138.6C150.475 139.536 154.189 140.292 154.189 140.292C154.189 140.292 154.411 144.72 155.935 144.858C157.459 144.996 161.227 144.762 161.227 144.762Z" fill="#FFC3BD"/>
<path d="M185.443 123.599C185.443 123.599 181.159 124.199 178.357 129.389C175.555 134.579 177.949 134.789 180.319 136.253C182.689 137.717 183.877 138.053 184.969 134.849C186.061 131.645 188.215 123.269 185.443 123.599Z" fill="#E70000"/>
<path opacity="0.1" d="M185.431 133.385L183.841 130.145L181.171 129.941C181.042 132.234 181.088 134.532 181.309 136.817C183.043 137.723 184.045 137.543 184.969 134.837C185.107 134.429 185.269 133.937 185.431 133.385Z" fill="black"/>
<path d="M176.898 102.924C176.898 102.924 173.778 104.028 175.842 107.202C177.906 110.376 173.742 112.536 180.732 113.412C187.722 114.288 180.978 101.646 180.978 101.646L176.898 102.924Z" fill="#263238"/>
<path opacity="0.3" d="M176.898 102.924C176.898 102.924 173.778 104.028 175.842 107.202C177.906 110.376 173.742 112.536 180.732 113.412C187.722 114.288 180.978 101.646 180.978 101.646L176.898 102.924Z" fill="black"/>
<path d="M203.773 122.844C202.729 116.052 198.775 116.172 194.923 117.69C195.193 120.246 195.199 123.51 191.497 125.544C188.167 127.344 186.871 124.344 186.799 121.812C183.307 123.798 180.391 126.342 181.345 131.412C181.891 134.292 184.435 137.454 187.039 141.468C190.153 146.268 193.357 151.716 193.357 151.716L211.153 142.656C211.153 142.656 204.907 130.2 203.773 122.844Z" fill="#E70000"/>
<path opacity="0.2" d="M203.773 122.843C203.647 121.968 203.432 121.107 203.131 120.275L200.437 119.819L199.033 122.051C199.033 122.051 202.003 127.283 205.951 130.589C204.987 128.08 204.258 125.487 203.773 122.843Z" fill="black"/>
<path d="M208.53 120.684C208.53 120.684 214.638 124.884 216.504 126.474C219.282 128.874 226.764 136.956 226.764 136.956L231.354 139.464V142.368L229.182 143.868C229.023 143.977 228.845 144.054 228.656 144.094C228.467 144.134 228.273 144.135 228.083 144.099C227.894 144.063 227.714 143.989 227.553 143.882C227.393 143.776 227.255 143.638 227.148 143.478L224.364 139.32C224.364 139.32 217.5 133.05 214.974 131.262C212.838 129.75 205.914 126.036 205.914 126.036L208.53 120.684Z" fill="#FFC3BD"/>
<path d="M197.257 117.06C197.257 117.06 201.193 115.29 204.547 117.06C207.901 118.83 209.383 119.802 209.053 121.938C208.723 124.074 207.493 128.49 205.285 127.758C203.077 127.026 196.033 120.036 197.257 117.06Z" fill="#E70000"/>
<path d="M190.681 105.491C191.137 110.093 191.431 112.025 189.511 114.731C186.619 118.805 180.871 118.361 179.053 113.993C177.409 110.057 176.941 103.193 181.105 100.673C182.019 100.104 183.064 99.7781 184.139 99.7276C185.215 99.6772 186.286 99.9036 187.249 100.385C188.212 100.867 189.036 101.587 189.641 102.478C190.246 103.369 190.612 104.4 190.705 105.473L190.681 105.491Z" fill="#FFC3BD"/>
<path d="M181.014 109.008C180.821 109.907 180.506 110.775 180.078 111.588C180.287 111.694 180.517 111.752 180.751 111.759C180.986 111.767 181.219 111.722 181.434 111.63L181.014 109.008Z" fill="#ED893E"/>
<path d="M184.087 105.936C184.115 105.92 184.138 105.897 184.153 105.87C184.176 105.828 184.181 105.779 184.169 105.733C184.157 105.688 184.127 105.648 184.087 105.623C183.793 105.446 183.461 105.342 183.119 105.32C182.776 105.298 182.433 105.359 182.119 105.498C182.076 105.522 182.045 105.561 182.03 105.608C182.016 105.655 182.02 105.705 182.041 105.75C182.063 105.791 182.1 105.823 182.145 105.838C182.19 105.852 182.239 105.849 182.281 105.828C182.543 105.717 182.828 105.67 183.112 105.691C183.395 105.712 183.67 105.8 183.913 105.948C183.941 105.961 183.971 105.967 184.002 105.965C184.032 105.963 184.062 105.953 184.087 105.936Z" fill="#263238"/>
<path d="M177.217 107.1L177.295 107.04C177.473 106.822 177.7 106.648 177.957 106.533C178.215 106.419 178.495 106.366 178.777 106.38C178.825 106.387 178.875 106.374 178.914 106.345C178.953 106.316 178.979 106.272 178.987 106.224C178.989 106.175 178.973 106.127 178.942 106.09C178.911 106.052 178.867 106.027 178.819 106.02C178.478 106.001 178.137 106.063 177.824 106.201C177.511 106.338 177.235 106.548 177.019 106.812C176.985 106.847 176.967 106.893 176.967 106.941C176.967 106.989 176.985 107.035 177.019 107.07C177.046 107.093 177.078 107.109 177.113 107.115C177.148 107.121 177.184 107.118 177.217 107.106V107.1Z" fill="#263238"/>
<path d="M183.534 108C183.594 108.366 183.444 108.696 183.198 108.738C182.952 108.78 182.712 108.516 182.658 108.138C182.604 107.76 182.742 107.442 182.982 107.4C183.222 107.358 183.468 107.604 183.534 108Z" fill="#263238"/>
<path d="M179.34 108.654C179.4 109.02 179.25 109.35 179.01 109.392C178.77 109.434 178.53 109.164 178.464 108.792C178.398 108.42 178.554 108.09 178.794 108.054C179.034 108.018 179.286 108.276 179.34 108.654Z" fill="#263238"/>
<path d="M178.903 108.053L177.973 107.945C177.973 107.945 178.543 108.563 178.903 108.053Z" fill="#263238"/>
<path d="M183.096 107.4L182.166 107.292C182.166 107.292 182.736 107.886 183.096 107.4Z" fill="#263238"/>
<path d="M184.429 113.334C184.657 113.223 184.874 113.09 185.077 112.938C185.091 112.928 185.103 112.915 185.113 112.9C185.122 112.885 185.128 112.868 185.131 112.851C185.134 112.834 185.133 112.816 185.129 112.799C185.125 112.782 185.117 112.766 185.107 112.752C185.081 112.729 185.048 112.716 185.014 112.716C184.979 112.716 184.946 112.729 184.921 112.752C184.473 113.095 183.951 113.328 183.396 113.432C182.842 113.537 182.271 113.509 181.729 113.352C181.713 113.345 181.695 113.341 181.678 113.341C181.66 113.341 181.643 113.345 181.627 113.351C181.611 113.358 181.596 113.368 181.583 113.38C181.571 113.393 181.561 113.408 181.555 113.424C181.547 113.44 181.543 113.458 181.543 113.476C181.543 113.494 181.547 113.512 181.554 113.529C181.561 113.545 181.572 113.56 181.586 113.572C181.599 113.584 181.615 113.593 181.633 113.598C182.564 113.877 183.567 113.782 184.429 113.334Z" fill="#263238"/>
<path d="M180.757 102.972C178.957 103.188 174.157 104.556 174.919 100.08C175.681 95.6037 184.255 93.3657 188.239 96.2577C192.223 99.1497 195.283 98.9337 198.439 96.5877C201.595 94.2417 203.131 95.1657 207.175 97.3497C207.175 97.3497 204.991 101.118 206.029 103.41C206.029 103.41 203.629 101.01 199.147 103.572C199.147 103.572 204.331 102.198 206.299 105.78C206.299 105.78 205.753 109.734 207.661 112.086C209.569 114.438 207.607 117.222 200.293 114.384C192.979 111.546 192.199 114.15 190.513 112.896C188.827 111.642 187.561 108.246 187.297 105.78C187.129 104.004 186.331 102.312 180.757 102.972Z" fill="#263238"/>
<path d="M191.311 108.654C191.254 109.093 191.11 109.517 190.889 109.901C190.668 110.285 190.373 110.622 190.021 110.892C189.079 111.6 188.173 110.892 188.077 109.746C187.987 108.744 188.371 107.16 189.493 106.884C189.74 106.833 189.996 106.844 190.238 106.917C190.48 106.989 190.7 107.12 190.878 107.299C191.056 107.477 191.188 107.697 191.26 107.939C191.333 108.181 191.344 108.437 191.293 108.684L191.311 108.654Z" fill="#FFC3BD"/>
<path d="M215.401 235.8C215.557 239.634 215.671 242.676 215.671 242.676L211.411 243.162C211.411 243.162 211.003 240.57 210.391 236.592L215.401 235.8Z" fill="#FFC3BD"/>
<path d="M209.539 242.238C209.1 242.319 208.647 242.233 208.267 241.998C208.222 241.934 208.197 241.858 208.197 241.779C208.197 241.701 208.222 241.624 208.267 241.56C208.297 241.499 208.338 241.444 208.39 241.4C208.442 241.355 208.502 241.322 208.567 241.302C209.269 241.062 210.805 241.812 210.871 241.848C210.89 241.857 210.906 241.872 210.916 241.89C210.927 241.908 210.932 241.929 210.931 241.95C210.929 241.971 210.92 241.99 210.906 242.005C210.892 242.02 210.873 242.03 210.853 242.034C210.422 242.142 209.982 242.21 209.539 242.238ZM208.813 241.458C208.747 241.458 208.682 241.47 208.621 241.494C208.58 241.502 208.541 241.52 208.507 241.546C208.474 241.572 208.447 241.606 208.429 241.644C208.363 241.776 208.393 241.836 208.429 241.866C208.645 242.13 209.719 242.07 210.505 241.92C209.971 241.661 209.393 241.504 208.801 241.458H208.813Z" fill="#E70000"/>
<path d="M210.817 242.034H210.775C210.253 241.842 209.173 240.984 209.233 240.498C209.233 240.384 209.311 240.24 209.587 240.192C209.691 240.171 209.798 240.172 209.902 240.196C210.006 240.219 210.103 240.265 210.187 240.33C210.605 240.769 210.872 241.331 210.949 241.932C210.953 241.947 210.953 241.962 210.949 241.977C210.945 241.992 210.937 242.005 210.926 242.016C210.915 242.026 210.901 242.033 210.886 242.037C210.871 242.04 210.855 242.039 210.841 242.034H210.817ZM209.665 240.378H209.611C209.431 240.378 209.419 240.48 209.419 240.504C209.419 240.792 210.127 241.476 210.673 241.752C210.592 241.273 210.366 240.831 210.025 240.486C209.921 240.409 209.794 240.37 209.665 240.378Z" fill="#E70000"/>
<path d="M211.231 241.41L215.875 241.116C215.961 241.11 216.045 241.134 216.115 241.183C216.185 241.232 216.236 241.304 216.259 241.386L217.345 245.112C217.372 245.19 217.382 245.273 217.375 245.356C217.368 245.438 217.344 245.518 217.304 245.591C217.265 245.664 217.211 245.727 217.146 245.778C217.08 245.829 217.005 245.866 216.925 245.886C216.881 245.892 216.837 245.892 216.793 245.886C215.119 245.964 213.619 245.97 211.537 246.102C209.077 246.264 209.737 246.516 206.827 246.744C205.087 246.876 204.643 244.944 205.375 244.77C208.729 244.128 209.017 243.084 210.241 241.77C210.519 241.539 210.869 241.411 211.231 241.41Z" fill="#263238"/>
<path d="M212.82 145.307L212.01 142.397C211.985 142.315 211.942 142.24 211.885 142.176C211.828 142.112 211.758 142.061 211.679 142.026C211.601 141.991 211.516 141.974 211.43 141.975C211.344 141.976 211.26 141.995 211.182 142.031L193.026 151.199C192.953 151.239 192.888 151.293 192.837 151.359C192.786 151.425 192.749 151.5 192.729 151.581C192.709 151.662 192.705 151.746 192.719 151.828C192.733 151.91 192.764 151.988 192.81 152.057L194.646 154.727C194.646 154.727 199.152 185.399 201 195.599C202.908 205.997 209.736 237.113 209.736 237.113C209.758 237.224 209.822 237.322 209.915 237.386C210.008 237.45 210.123 237.475 210.234 237.455L215.52 236.603C215.62 236.587 215.712 236.536 215.778 236.459C215.845 236.382 215.883 236.285 215.886 236.183C215.946 233.531 215.886 216.767 214.218 204.905C213.618 200.669 212.19 197.273 211.704 194.939C211.17 192.365 211.998 190.637 212.304 184.439C212.964 172.799 213.696 154.379 212.82 145.307Z" fill="#263238"/>
<path opacity="0.5" d="M212.347 184.464C212.557 180.558 212.773 175.902 212.947 171.09L207.679 162.21L205.333 156.966L203.113 159.966C203.113 159.966 207.037 176.472 212.191 186.84C212.245 186.144 212.305 185.352 212.347 184.464Z" fill="black"/>
<path d="M252.302 221.124C254.51 224.262 255.944 226.326 255.944 226.326L252.602 229.038L248.186 224.07L252.302 221.124Z" fill="#FFC3BD"/>
<path d="M250.296 229.248C249.97 229.553 249.543 229.726 249.096 229.734C249.021 229.709 248.955 229.66 248.909 229.596C248.863 229.531 248.838 229.454 248.838 229.374C248.826 229.238 248.867 229.102 248.952 228.996C249.414 228.396 251.112 228.216 251.19 228.204C251.211 228.201 251.233 228.206 251.251 228.216C251.27 228.227 251.284 228.244 251.292 228.264C251.303 228.281 251.309 228.301 251.309 228.321C251.309 228.341 251.303 228.361 251.292 228.378C250.985 228.695 250.652 228.986 250.296 229.248ZM249.258 228.984C249.205 229.022 249.156 229.066 249.114 229.116C249.087 229.148 249.066 229.185 249.054 229.225C249.041 229.266 249.037 229.308 249.042 229.35C249.042 229.494 249.114 229.53 249.156 229.542C249.48 229.644 250.356 229.014 250.956 228.462C250.362 228.526 249.785 228.703 249.258 228.984Z" fill="#E70000"/>
<path d="M251.263 228.384H251.227C250.681 228.504 249.307 228.384 249.097 227.928C249.037 227.826 249.019 227.664 249.229 227.478C249.303 227.409 249.39 227.356 249.484 227.322C249.579 227.288 249.68 227.274 249.781 227.28C250.372 227.424 250.904 227.752 251.299 228.216C251.308 228.231 251.312 228.249 251.312 228.267C251.312 228.284 251.308 228.302 251.299 228.318C251.294 228.343 251.281 228.366 251.263 228.384ZM249.397 227.616L249.349 227.646C249.211 227.766 249.241 227.832 249.253 227.856C249.403 228.102 250.375 228.288 250.987 228.222C250.655 227.865 250.225 227.617 249.751 227.508C249.624 227.501 249.498 227.539 249.397 227.616Z" fill="#E70000"/>
<path d="M251.269 227.64L255.019 224.874C255.085 224.82 255.167 224.791 255.253 224.791C255.338 224.791 255.42 224.82 255.487 224.874L258.409 227.424C258.473 227.475 258.527 227.539 258.566 227.611C258.605 227.684 258.629 227.764 258.635 227.846C258.642 227.928 258.632 228.011 258.605 228.089C258.579 228.167 258.536 228.239 258.481 228.3C258.452 228.333 258.42 228.363 258.385 228.39C257.017 229.362 255.757 230.19 254.077 231.42C252.097 232.884 252.775 232.752 250.477 234.504C249.085 235.56 247.651 234.15 248.185 233.634C250.663 231.276 250.339 230.244 250.669 228.492C250.761 228.146 250.974 227.844 251.269 227.64Z" fill="#263238"/>
<path d="M199.525 152.712C199.525 152.712 213.427 184.758 219.997 194.31C225.835 202.794 247.999 224.502 247.999 224.502C248.163 224.678 248.389 224.785 248.629 224.799C248.869 224.814 249.106 224.735 249.289 224.58L252.367 221.964C252.536 221.819 252.648 221.619 252.683 221.399C252.718 221.179 252.674 220.954 252.559 220.764C250.669 217.686 242.713 204.888 235.729 196.56C232.945 193.242 230.269 190.806 228.949 188.976C227.215 186.576 227.623 184.62 226.249 177.906C223.693 165.42 218.713 147.06 211.153 144.126L199.525 152.712Z" fill="#263238"/>
<path opacity="0.3" d="M172.685 243.258H116.051C115.143 243.275 114.241 243.098 113.407 242.738C112.572 242.379 111.824 241.846 111.211 241.175C110.599 240.504 110.136 239.711 109.854 238.847C109.573 237.983 109.478 237.069 109.577 236.166L122.021 93.9663C122.216 92.044 123.109 90.2599 124.531 88.9518C125.953 87.6438 127.805 86.9024 129.737 86.8683H186.371C187.28 86.8517 188.182 87.029 189.017 87.3885C189.852 87.748 190.601 88.2814 191.214 88.953C191.826 89.6247 192.289 90.4192 192.57 91.2837C192.851 92.1482 192.945 93.0627 192.845 93.9663L180.401 236.166C180.205 238.087 179.311 239.87 177.889 241.177C176.468 242.484 174.616 243.224 172.685 243.258Z" fill="#E70000"/>
<path d="M186.371 86.8448H129.737C127.805 86.879 125.953 87.6203 124.531 88.9284C123.109 90.2365 122.216 92.0206 122.021 93.9428L109.577 236.143C109.478 237.046 109.573 237.96 109.854 238.823C110.136 239.687 110.599 240.481 111.211 241.152C111.824 241.823 112.572 242.356 113.407 242.715C114.241 243.074 115.143 243.251 116.051 243.235H172.685C174.616 243.201 176.468 242.46 177.889 241.153C179.311 239.847 180.205 238.064 180.401 236.143L192.845 93.9428C192.945 93.0392 192.851 92.1247 192.57 91.2603C192.289 90.3958 191.826 89.6013 191.214 88.9296C190.601 88.2579 189.852 87.7246 189.017 87.3651C188.182 87.0056 187.28 86.8282 186.371 86.8448ZM177.251 236.167C177.141 237.235 176.644 238.225 175.854 238.951C175.063 239.678 174.034 240.089 172.961 240.109H116.327C115.822 240.118 115.321 240.019 114.857 239.819C114.394 239.62 113.978 239.324 113.637 238.951C113.297 238.578 113.039 238.137 112.882 237.657C112.725 237.177 112.673 236.669 112.727 236.167L125.171 93.9668C125.28 92.8979 125.776 91.9059 126.567 91.1783C127.357 90.4508 128.387 90.0383 129.461 90.0188H186.095C186.601 90.0098 187.102 90.1086 187.567 90.3086C188.031 90.5087 188.447 90.8053 188.788 91.1789C189.128 91.5525 189.385 91.9943 189.542 92.475C189.698 92.9558 189.751 93.4643 189.695 93.9668L177.251 236.167Z" fill="#E70000"/>
<path opacity="0.6" d="M186.371 86.8448H129.737C127.805 86.879 125.953 87.6203 124.531 88.9284C123.109 90.2365 122.216 92.0206 122.021 93.9428L109.577 236.143C109.478 237.046 109.573 237.96 109.854 238.823C110.136 239.687 110.599 240.481 111.211 241.152C111.824 241.823 112.572 242.356 113.407 242.715C114.241 243.074 115.143 243.251 116.051 243.235H172.685C174.616 243.201 176.468 242.46 177.889 241.153C179.311 239.847 180.205 238.064 180.401 236.143L192.845 93.9428C192.945 93.0392 192.851 92.1247 192.57 91.2603C192.289 90.3958 191.826 89.6013 191.214 88.9296C190.601 88.2579 189.852 87.7246 189.017 87.3651C188.182 87.0056 187.28 86.8282 186.371 86.8448ZM177.251 236.167C177.141 237.235 176.644 238.225 175.854 238.951C175.063 239.678 174.034 240.089 172.961 240.109H116.327C115.822 240.118 115.321 240.019 114.857 239.819C114.394 239.62 113.978 239.324 113.637 238.951C113.297 238.578 113.039 238.137 112.882 237.657C112.725 237.177 112.673 236.669 112.727 236.167L125.171 93.9668C125.28 92.8979 125.776 91.9059 126.567 91.1783C127.357 90.4508 128.387 90.0383 129.461 90.0188H186.095C186.601 90.0098 187.102 90.1086 187.567 90.3086C188.031 90.5087 188.447 90.8053 188.788 91.1789C189.128 91.5525 189.385 91.9943 189.542 92.475C189.698 92.9558 189.751 93.4643 189.695 93.9668L177.251 236.167Z" fill="white"/>
<path d="M152.873 234.475H137.273C137.035 234.479 136.807 234.571 136.632 234.733C136.458 234.894 136.348 235.114 136.325 235.351C136.313 235.462 136.325 235.574 136.36 235.68C136.394 235.786 136.452 235.884 136.527 235.966C136.603 236.049 136.695 236.114 136.798 236.158C136.9 236.202 137.011 236.223 137.123 236.221H152.723C152.961 236.218 153.189 236.127 153.365 235.967C153.541 235.807 153.652 235.587 153.677 235.351C153.689 235.239 153.677 235.126 153.642 235.019C153.606 234.912 153.549 234.814 153.473 234.731C153.397 234.648 153.304 234.582 153.2 234.538C153.097 234.494 152.985 234.472 152.873 234.475Z" fill="white"/>
<path opacity="0.1" d="M152.488 153.001H135.976C135.446 153.011 134.919 152.907 134.432 152.698C133.945 152.488 133.508 152.177 133.15 151.786C132.792 151.394 132.522 150.93 132.358 150.426C132.193 149.922 132.138 149.388 132.196 148.861L133.642 132.343C133.757 131.222 134.277 130.182 135.107 129.419C135.936 128.656 137.016 128.223 138.142 128.203H154.66C155.19 128.194 155.716 128.297 156.203 128.507C156.69 128.717 157.127 129.028 157.484 129.42C157.842 129.811 158.112 130.274 158.277 130.778C158.442 131.282 158.497 131.816 158.44 132.343L156.994 148.861C156.88 149.983 156.358 151.024 155.528 151.787C154.697 152.55 153.616 152.982 152.488 153.001Z" fill="black"/>
<path d="M150.689 151.2H134.177C133.647 151.21 133.121 151.107 132.633 150.897C132.146 150.688 131.709 150.377 131.351 149.985C130.993 149.593 130.723 149.13 130.559 148.625C130.394 148.121 130.339 147.587 130.397 147.06L131.843 130.542C131.958 129.421 132.479 128.381 133.308 127.618C134.137 126.855 135.217 126.423 136.343 126.402H152.861C153.392 126.393 153.918 126.497 154.404 126.707C154.891 126.916 155.328 127.227 155.686 127.619C156.043 128.011 156.313 128.474 156.478 128.978C156.643 129.482 156.699 130.015 156.641 130.542L155.195 147.06C155.081 148.182 154.559 149.223 153.729 149.986C152.898 150.749 151.817 151.181 150.689 151.2Z" fill="#E70000"/>
<path d="M146.291 137.292C146.573 134.088 143.891 131.496 140.231 131.496C136.571 131.496 133.439 134.088 133.163 137.292C132.941 139.818 134.591 141.966 137.081 142.752C136.735 143.424 136.184 143.968 135.509 144.306C135.628 144.38 135.755 144.442 135.887 144.492C136.558 144.71 137.285 144.687 137.942 144.428C138.599 144.168 139.145 143.688 139.487 143.07C142.991 142.95 146.021 140.4 146.291 137.292Z" fill="white"/>
<path d="M153.894 140.065C154.128 137.425 151.89 135.265 148.896 135.265C148.369 135.266 147.845 135.332 147.336 135.463C147.46 136.054 147.499 136.66 147.45 137.263C147.32 138.406 146.928 139.505 146.303 140.472C145.679 141.439 144.839 142.248 143.85 142.837C144.305 143.424 144.884 143.904 145.546 144.243C146.207 144.582 146.935 144.772 147.678 144.799C147.769 145.04 147.907 145.261 148.084 145.448C148.26 145.636 148.472 145.787 148.708 145.892C148.943 145.998 149.197 146.055 149.455 146.062C149.712 146.069 149.969 146.025 150.21 145.933C150.316 145.893 150.42 145.847 150.522 145.795C150.069 145.537 149.726 145.123 149.556 144.631C151.878 144.091 153.702 142.255 153.894 140.065Z" fill="white"/>
<path opacity="0.1" d="M144.917 204.12H132.635C132.24 204.128 131.849 204.051 131.486 203.895C131.124 203.74 130.799 203.508 130.532 203.217C130.266 202.926 130.065 202.581 129.942 202.206C129.82 201.831 129.778 201.435 129.821 201.042L130.895 188.76C130.98 187.925 131.368 187.15 131.986 186.581C132.604 186.013 133.409 185.691 134.249 185.676H146.531C146.926 185.669 147.318 185.746 147.681 185.902C148.044 186.058 148.37 186.289 148.636 186.581C148.902 186.873 149.103 187.219 149.226 187.594C149.348 187.97 149.389 188.368 149.345 188.76L148.271 201.042C148.186 201.877 147.797 202.652 147.179 203.219C146.561 203.786 145.756 204.107 144.917 204.12Z" fill="black"/>
<path opacity="0.1" d="M162.942 180.217H147.6C147.107 180.226 146.617 180.129 146.164 179.934C145.711 179.739 145.305 179.45 144.973 179.085C144.641 178.72 144.39 178.289 144.238 177.82C144.086 177.351 144.035 176.855 144.09 176.365L145.428 161.011C145.535 159.966 146.022 158.996 146.796 158.287C147.57 157.577 148.578 157.175 149.628 157.159H164.988C165.481 157.151 165.97 157.248 166.422 157.443C166.875 157.638 167.28 157.928 167.612 158.292C167.944 158.657 168.195 159.088 168.348 159.556C168.5 160.025 168.551 160.521 168.498 161.011L167.16 176.365C167.052 177.413 166.563 178.384 165.785 179.095C165.007 179.805 163.995 180.204 162.942 180.217Z" fill="black"/>
<path d="M161.141 178.416H145.799C145.306 178.425 144.816 178.329 144.363 178.134C143.911 177.938 143.504 177.649 143.172 177.284C142.84 176.92 142.589 176.489 142.437 176.019C142.285 175.55 142.234 175.054 142.289 174.564L143.627 159.21C143.734 158.165 144.221 157.196 144.995 156.486C145.769 155.776 146.777 155.374 147.827 155.358H163.187C163.68 155.35 164.169 155.447 164.621 155.642C165.074 155.838 165.479 156.127 165.811 156.492C166.143 156.856 166.394 157.287 166.547 157.755C166.699 158.224 166.751 158.72 166.697 159.21L165.359 174.564C165.251 175.612 164.762 176.584 163.984 177.294C163.206 178.004 162.194 178.404 161.141 178.416Z" fill="#E70000"/>
<path d="M143.116 202.321H130.834C130.44 202.328 130.048 202.251 129.686 202.096C129.323 201.94 128.998 201.709 128.732 201.417C128.465 201.126 128.264 200.782 128.142 200.407C128.019 200.032 127.978 199.635 128.02 199.243L129.094 186.96C129.179 186.125 129.568 185.35 130.186 184.782C130.804 184.213 131.609 183.891 132.448 183.876H144.73C145.125 183.869 145.517 183.946 145.88 184.102C146.243 184.258 146.569 184.49 146.835 184.782C147.102 185.073 147.303 185.419 147.425 185.795C147.547 186.17 147.588 186.568 147.544 186.96L146.47 199.243C146.385 200.077 145.997 200.852 145.378 201.419C144.76 201.986 143.955 202.307 143.116 202.321Z" fill="#E70000"/>
<path d="M162.149 160.554H147.899C147.449 160.553 147.014 160.72 146.68 161.023C146.347 161.326 146.14 161.744 146.099 162.192L145.301 171.6C145.279 171.808 145.301 172.019 145.367 172.218C145.432 172.416 145.539 172.599 145.68 172.753C145.822 172.908 145.994 173.03 146.186 173.113C146.378 173.195 146.586 173.236 146.795 173.232H161.039C161.489 173.234 161.923 173.068 162.256 172.766C162.589 172.464 162.797 172.048 162.839 171.6L163.661 162.204C163.686 161.993 163.666 161.78 163.601 161.577C163.535 161.375 163.427 161.189 163.284 161.033C163.14 160.876 162.965 160.752 162.769 160.67C162.573 160.587 162.362 160.548 162.149 160.554ZM151.235 166.878L146.465 171.264L147.233 162.492L151.235 166.878ZM148.103 161.688H161.741L154.847 168.03C154.785 168.093 154.711 168.143 154.629 168.177C154.547 168.212 154.459 168.229 154.37 168.229C154.282 168.229 154.194 168.212 154.112 168.177C154.03 168.143 153.956 168.093 153.893 168.03L148.103 161.688ZM151.967 167.688L153.017 168.84C153.175 169.01 153.366 169.145 153.579 169.235C153.792 169.326 154.022 169.372 154.253 169.368C154.746 169.365 155.219 169.177 155.579 168.84L156.833 167.688L160.853 172.092H147.179L151.967 167.688ZM157.703 166.884L162.503 162.498L161.735 171.27L157.703 166.884Z" fill="white"/>
<path d="M132.148 189.793L135.748 191.257L139.708 188.545L136.732 192.067L138.916 195.151L142.378 186.559L132.148 189.793Z" fill="white"/>
<path d="M135.503 192.072L137.123 194.052H135.395L135.503 192.072Z" fill="white"/>
<path d="M134.069 194.658L133.691 194.418C133.802 194.24 133.924 194.07 134.057 193.908L134.399 194.202C134.279 194.347 134.169 194.499 134.069 194.658Z" fill="white"/>
<path d="M133.889 197.616C133.515 197.41 133.237 197.065 133.115 196.656L133.547 196.536C133.648 196.836 133.863 197.084 134.147 197.226L133.889 197.616ZM133.511 196.068L133.061 196.032C133.105 195.64 133.221 195.26 133.403 194.91L133.811 195.114C133.652 195.411 133.551 195.734 133.511 196.068Z" fill="white"/>
<path d="M142.961 199.201L142.517 199.123C142.539 199.014 142.549 198.903 142.547 198.793C142.561 198.601 142.503 198.41 142.385 198.259L142.733 197.971C142.915 198.205 143.008 198.496 142.997 198.793C142.996 198.929 142.984 199.066 142.961 199.201ZM136.583 198.163H136.115V197.713C136.473 197.73 136.832 197.73 137.189 197.713V198.163H136.583ZM137.783 198.115V197.665C138.149 197.665 138.515 197.605 138.869 197.569L138.911 198.019L137.783 198.115ZM135.557 198.115H135.371C135.056 198.073 134.744 198.003 134.441 197.905L134.585 197.479C134.86 197.57 135.144 197.635 135.431 197.671H135.605L135.557 198.115ZM142.037 198.025C141.716 197.921 141.379 197.872 141.041 197.881V197.401C141.435 197.39 141.827 197.449 142.199 197.575L142.037 198.025ZM139.427 197.971L139.385 197.521C139.769 197.485 140.141 197.455 140.483 197.437V197.887C140.165 197.887 139.799 197.917 139.421 197.953L139.427 197.971Z" fill="white"/>
<path d="M142.59 200.34L142.176 200.16C142.26 199.968 142.332 199.782 142.386 199.62L142.812 199.758C142.752 199.938 142.68 200.13 142.59 200.34Z" fill="white"/>
<path opacity="0.1" d="M159.239 124.842H145.439C144.995 124.85 144.554 124.763 144.146 124.587C143.739 124.411 143.373 124.151 143.074 123.823C142.775 123.494 142.549 123.106 142.411 122.684C142.274 122.262 142.228 121.815 142.277 121.374L143.477 107.574C143.572 106.635 144.008 105.764 144.702 105.125C145.397 104.486 146.301 104.123 147.245 104.106H161.045C161.489 104.098 161.929 104.185 162.337 104.361C162.745 104.537 163.11 104.797 163.409 105.125C163.709 105.453 163.934 105.842 164.072 106.264C164.209 106.686 164.255 107.133 164.207 107.574L163.007 121.374C162.911 122.313 162.475 123.184 161.781 123.823C161.087 124.462 160.182 124.825 159.239 124.842Z" fill="black"/>
<path d="M157.44 123.042H143.64C143.196 123.05 142.755 122.963 142.348 122.787C141.94 122.612 141.574 122.351 141.275 122.023C140.976 121.695 140.75 121.307 140.613 120.884C140.475 120.462 140.429 120.015 140.478 119.574L141.678 105.774C141.773 104.835 142.209 103.964 142.903 103.325C143.598 102.686 144.502 102.323 145.446 102.306H159.246C159.69 102.298 160.13 102.385 160.538 102.561C160.946 102.737 161.311 102.997 161.611 103.326C161.91 103.654 162.136 104.042 162.273 104.464C162.411 104.886 162.456 105.333 162.408 105.774L161.208 119.574C161.113 120.513 160.677 121.384 159.982 122.023C159.288 122.663 158.383 123.025 157.44 123.042Z" fill="#E70000"/>
<path d="M158.178 115.482C158.087 113.054 157.139 110.737 155.501 108.942C153.863 107.147 151.642 105.99 149.232 105.678C148.527 105.331 147.724 105.239 146.958 105.416C146.193 105.593 145.512 106.029 145.032 106.65C143.832 108.108 144.9 109.05 146.232 110.094C147.564 111.138 148.758 111.936 149.94 110.478C150.383 109.945 150.657 109.291 150.726 108.6C151.834 109.053 152.827 109.746 153.633 110.631C154.44 111.515 155.039 112.568 155.388 113.712C154.698 113.716 154.026 113.924 153.456 114.312C151.902 115.368 152.586 116.598 153.516 118.056C154.446 119.514 155.274 120.642 156.822 119.58C157.483 119.156 157.978 118.517 158.225 117.771C158.471 117.025 158.455 116.217 158.178 115.482Z" fill="white"/>
<path d="M152.399 84.4563H161.819C162.287 84.4563 162.347 83.7363 161.885 83.7363H152.477C152.015 83.7363 151.949 84.4563 152.411 84.4563H152.399Z" fill="#E70000"/>
<path d="M165.269 84.4563H167.999C168.467 84.4563 168.527 83.7363 168.065 83.7363H165.359C164.897 83.7363 164.831 84.4563 165.299 84.4563H165.269Z" fill="#E70000"/>
<g opacity="0.3">
<path opacity="0.3" d="M152.399 84.4563H161.819C162.287 84.4563 162.347 83.7363 161.885 83.7363H152.477C152.015 83.7363 151.949 84.4563 152.411 84.4563H152.399Z" fill="white"/>
</g>
<g opacity="0.3">
<path opacity="0.3" d="M165.269 84.4563H167.999C168.467 84.4563 168.527 83.7363 168.065 83.7363H165.359C164.897 83.7363 164.831 84.4563 165.299 84.4563H165.269Z" fill="white"/>
</g>
<path d="M183.419 157.242L182.591 166.65C182.583 166.745 182.613 166.84 182.675 166.913C182.737 166.986 182.826 167.032 182.921 167.04C183.017 167.048 183.111 167.018 183.184 166.956C183.258 166.894 183.303 166.805 183.311 166.71C183.583 163.578 183.857 160.442 184.133 157.302C184.132 157.213 184.097 157.127 184.036 157.062C183.975 156.996 183.892 156.956 183.803 156.949C183.714 156.941 183.626 156.967 183.555 157.021C183.484 157.075 183.435 157.154 183.419 157.242Z" fill="#E70000"/>
<path d="M182.291 170.094L182.057 172.8C182.058 172.89 182.092 172.975 182.153 173.041C182.214 173.106 182.297 173.146 182.386 173.154C182.476 173.161 182.564 173.135 182.635 173.081C182.706 173.027 182.754 172.948 182.771 172.86L183.005 170.16C183.005 170.071 182.971 169.984 182.911 169.917C182.85 169.851 182.767 169.81 182.678 169.801C182.588 169.793 182.499 169.819 182.427 169.873C182.356 169.927 182.307 170.006 182.291 170.094Z" fill="#E70000"/>
<g opacity="0.3">
<path opacity="0.3" d="M183.419 157.242L182.591 166.65C182.583 166.745 182.613 166.84 182.675 166.913C182.737 166.986 182.826 167.032 182.921 167.04C183.017 167.048 183.111 167.018 183.184 166.956C183.258 166.894 183.303 166.805 183.311 166.71C183.583 163.578 183.857 160.442 184.133 157.302C184.132 157.213 184.097 157.127 184.036 157.062C183.975 156.996 183.892 156.956 183.803 156.949C183.714 156.941 183.626 156.967 183.555 157.021C183.484 157.075 183.435 157.154 183.419 157.242Z" fill="white"/>
</g>
<g opacity="0.3">
<path opacity="0.3" d="M182.291 170.094L182.057 172.8C182.058 172.89 182.092 172.975 182.153 173.041C182.214 173.106 182.297 173.146 182.386 173.154C182.476 173.161 182.564 173.135 182.635 173.081C182.706 173.027 182.754 172.948 182.771 172.86L183.005 170.16C183.005 170.071 182.971 169.984 182.911 169.917C182.85 169.851 182.767 169.81 182.678 169.801C182.588 169.793 182.499 169.819 182.427 169.873C182.356 169.927 182.307 170.006 182.291 170.094Z" fill="white"/>
</g>
<path d="M100.109 115.374C100.109 115.374 96.6288 114.9 97.0488 116.712C97.3548 118.032 98.5248 115.434 100.109 115.374Z" fill="#263238"/>
<path d="M97.0859 119.49C97.0859 119.49 99.9539 119.46 100.398 114.234C100.398 114.234 103.134 113.28 104.688 114.984C106.242 116.688 102.672 119.988 104.64 121.704C104.64 121.704 102.672 122.778 97.0859 119.49Z" fill="#FF8B7B"/>
<path d="M107.699 101.028C107.699 101.028 111.395 100.236 112.355 102.954C113.315 105.672 106.883 104.478 106.883 104.478L107.699 101.028Z" fill="#263238"/>
<path opacity="0.3" d="M107.699 101.028C107.699 101.028 111.395 100.236 112.355 102.954C113.315 105.672 106.883 104.478 106.883 104.478L107.699 101.028Z" fill="black"/>
<path d="M110.723 107.802C110.783 107.454 111.011 107.202 111.239 107.244C111.467 107.286 111.605 107.592 111.545 107.94C111.485 108.288 111.251 108.54 111.029 108.504C110.807 108.468 110.663 108.15 110.723 107.802Z" fill="#263238"/>
<path d="M110.903 108.456L112.517 111.072C112.211 111.261 111.864 111.375 111.506 111.406C111.147 111.436 110.787 111.381 110.453 111.246L110.903 108.456Z" fill="#FF5652"/>
<path d="M98.6818 106.122C98.4778 110.568 98.2978 112.452 100.284 114.954C103.446 117.63 108.786 118.002 110.31 113.7C111.684 109.836 111.786 103.23 107.646 100.986C106.736 100.492 105.715 100.239 104.68 100.251C103.645 100.263 102.63 100.54 101.732 101.054C100.834 101.569 100.082 102.305 99.5482 103.192C99.0143 104.079 98.7161 105.087 98.6818 106.122Z" fill="#FF8B7B"/>
<path d="M110.166 106.704C110.195 106.721 110.228 106.729 110.262 106.729C110.295 106.729 110.328 106.721 110.358 106.704C110.564 106.548 110.804 106.443 111.058 106.397C111.313 106.351 111.574 106.366 111.822 106.44C111.872 106.46 111.928 106.459 111.977 106.438C112.027 106.416 112.066 106.376 112.086 106.326C112.106 106.275 112.105 106.219 112.084 106.168C112.062 106.118 112.022 106.078 111.972 106.056C111.66 105.955 111.329 105.931 111.007 105.985C110.684 106.04 110.379 106.171 110.118 106.368C110.096 106.382 110.076 106.401 110.061 106.422C110.046 106.444 110.035 106.468 110.03 106.494C110.024 106.519 110.024 106.546 110.029 106.572C110.033 106.598 110.043 106.622 110.058 106.644C110.086 106.676 110.124 106.698 110.166 106.704Z" fill="#263238"/>
<path d="M95.0703 120.39C95.0703 120.39 96.3063 116.976 101.424 119.154C106.542 121.332 107.022 124.332 107.022 124.332L95.0703 120.39Z" fill="#263238"/>
<path opacity="0.4" d="M95.0703 120.39C95.0703 120.39 96.3063 116.976 101.424 119.154C106.542 121.332 107.022 124.332 107.022 124.332L95.0703 120.39Z" fill="black"/>
<path d="M97.3671 185.094C97.3671 185.094 96.6411 191.316 96.2931 193.374C95.9811 195.174 86.0931 242.394 86.0931 242.394L81.5991 241.65C81.5991 241.65 81.1011 217.728 84.5631 201.894C85.2771 198.654 86.7111 195.942 87.2331 193.464C87.6531 191.478 87.0171 185.334 87.0171 185.334L97.3671 185.094Z" fill="#FF8B7B"/>
<path d="M78.5997 184.08C78.5997 184.08 76.5057 189.78 75.5277 191.544C74.4657 193.464 70.4337 198.69 70.4337 198.69L48.9537 228.828L44.8438 226.23C44.8438 226.23 51.0417 209.634 60.3777 196.122C62.6037 192.9 65.8077 190.446 67.5777 187.248C68.5797 185.412 69.4317 179.076 69.4317 179.076L78.5997 184.08Z" fill="#FF8B7B"/>
<path d="M84.3594 126.384C84.3594 126.384 79.2174 132.942 79.6554 135.696C80.0934 138.45 88.1514 141.804 88.1514 141.804L90.1974 138.894L84.9054 135.03L89.9454 129.252L84.3594 126.384Z" fill="#FF8B7B"/>
<path d="M92.8607 119.82C92.2187 119.514 89.3687 118.374 83.2188 126.366C83.2188 126.366 85.4567 129.156 90.2507 130.818C90.2507 130.8 95.6507 121.122 92.8607 119.82Z" fill="#263238"/>
<path opacity="0.4" d="M90.2518 130.8C90.2518 130.8 91.1518 129.192 92.0518 127.2C91.9078 123.774 91.4878 119.52 90.2878 121.05C88.6918 123.078 86.4838 127.164 85.7578 128.532C87.1468 129.487 88.6585 130.25 90.2518 130.8Z" fill="black"/>
<path d="M85.4104 146.4C91.3204 149.591 97.8487 151.469 104.55 151.908L97.6144 190.554C97.6144 190.554 77.6103 190.488 67.1523 180.552C67.1523 180.528 71.3223 159.468 85.4104 146.4Z" fill="#E70000"/>
<path d="M84.5645 146.484C84.5645 146.484 92.5745 152.388 105.33 151.986C105.33 151.986 112.656 131.718 108.066 124.86C105.228 120.624 94.3325 118.71 91.3985 119.916C87.8645 121.368 89.9105 134.076 84.5645 146.484Z" fill="#263238"/>
<path opacity="0.1" d="M86.4842 167.305L77.5742 186.787C80.6982 187.921 83.9086 188.802 87.1742 189.421C87.1742 189.421 87.4742 171.223 86.4842 167.305Z" fill="black"/>
<path opacity="0.4" d="M104.705 128.178L103.289 129.222C104.423 133.168 106.208 136.897 108.569 140.256C109.175 137.428 109.51 134.549 109.571 131.658L106.415 129L104.705 128.178Z" fill="black"/>
<path d="M112.734 131.106L117.534 137.796L129.6 138.6L131.814 136.758C131.961 136.634 132.143 136.558 132.336 136.542L138.78 136.032C138.826 136.03 138.872 136.037 138.916 136.054C138.959 136.07 138.999 136.096 139.032 136.129C139.064 136.161 139.09 136.201 139.106 136.244C139.123 136.288 139.13 136.334 139.128 136.38L139.092 136.926C139.085 137.004 139.052 137.078 138.997 137.133C138.942 137.189 138.869 137.224 138.792 137.232L135.738 137.472L135.138 140.598C135.103 140.774 135.019 140.937 134.896 141.068C134.773 141.198 134.615 141.291 134.442 141.336L132.042 141.936C131.889 141.979 131.727 141.979 131.574 141.936L129.882 141.51C129.882 141.51 120.48 143.406 116.166 142.644C111.852 141.882 107.598 134.844 107.598 134.844L112.734 131.106Z" fill="#FF8B7B"/>
<path d="M107.177 136.2C107.177 136.2 99.4488 125.862 104.219 123.462C108.989 121.062 113.999 131.682 113.999 131.682C113.999 131.682 112.043 134.67 107.177 136.2Z" fill="#263238"/>
<path d="M87.0776 242.124C87.0545 242.12 87.0335 242.108 87.0174 242.091C87.0012 242.074 86.9908 242.052 86.9876 242.028C86.9841 242.004 86.9879 241.979 86.9986 241.956C87.0092 241.934 87.0263 241.915 87.0476 241.902C87.1256 241.866 88.8956 240.936 89.7176 241.2C89.7936 241.222 89.8646 241.259 89.9264 241.308C89.9882 241.358 90.0396 241.419 90.0776 241.488C90.1317 241.562 90.1609 241.652 90.1609 241.743C90.1609 241.835 90.1317 241.924 90.0776 241.998C89.6447 242.285 89.1208 242.4 88.6076 242.322C88.0925 242.305 87.5801 242.239 87.0776 242.124ZM87.4676 241.98C88.3856 242.13 89.6396 242.172 89.8676 241.854C89.9036 241.818 89.9396 241.746 89.8676 241.596C89.8458 241.553 89.8145 241.515 89.7761 241.485C89.7378 241.454 89.6932 241.433 89.6456 241.422C89.572 241.398 89.495 241.386 89.4176 241.386C88.7358 241.459 88.074 241.66 87.4676 241.98Z" fill="#E70000"/>
<path d="M87.0006 242.118C86.9829 242.107 86.969 242.09 86.9605 242.071C86.952 242.052 86.9492 242.031 86.9526 242.01C86.9526 241.944 87.1446 240.612 87.7926 240.114C87.8862 240.042 87.9935 239.989 88.1079 239.959C88.2223 239.929 88.3416 239.923 88.4586 239.94C88.7826 239.982 88.8726 240.15 88.8846 240.288C88.9686 240.846 87.7326 241.878 87.1266 242.124H87.0786C87.0526 242.131 87.0252 242.129 87.0006 242.118ZM88.3686 240.156C88.2209 240.148 88.0757 240.195 87.9606 240.288C87.5713 240.702 87.3198 241.226 87.2406 241.788C87.8406 241.446 88.6866 240.636 88.6686 240.294C88.6686 240.264 88.6686 240.18 88.4406 240.156H88.3686Z" fill="#E70000"/>
<path d="M86.5985 241.41L81.1985 241.206C81.0989 241.203 81.0011 241.234 80.9215 241.294C80.8418 241.354 80.7851 241.44 80.7605 241.536L79.6145 245.91C79.5649 246.096 79.5907 246.293 79.6863 246.46C79.7819 246.626 79.9394 246.748 80.1245 246.798C80.1761 246.807 80.2289 246.807 80.2805 246.798C82.2365 246.84 83.9765 246.798 86.4125 246.894C89.2865 247.002 88.5425 247.314 91.9205 247.494C93.9545 247.596 94.4105 245.298 93.5525 245.154C89.6225 244.512 89.2565 243.3 87.7865 241.83C87.454 241.552 87.0322 241.403 86.5985 241.41Z" fill="#263238"/>
<path d="M49.6251 229.122C49.6076 229.105 49.595 229.084 49.5886 229.061C49.5823 229.038 49.5824 229.013 49.5891 228.99C49.5966 228.967 49.6111 228.948 49.6305 228.934C49.6499 228.92 49.6732 228.912 49.6971 228.912C49.7871 228.912 51.7851 228.912 52.4031 229.512C52.5188 229.625 52.5874 229.777 52.5951 229.938C52.6071 230.029 52.5904 230.121 52.5473 230.202C52.5043 230.282 52.4371 230.348 52.3551 230.388C51.8372 230.446 51.3162 230.311 50.8911 230.01C50.4431 229.753 50.0193 229.456 49.6251 229.122ZM50.0391 229.17C50.7891 229.716 51.8931 230.316 52.2531 230.142C52.3011 230.142 52.3611 230.082 52.3551 229.908C52.3556 229.859 52.3451 229.81 52.3243 229.765C52.3035 229.721 52.2731 229.681 52.2351 229.65C52.1797 229.597 52.117 229.553 52.0491 229.518C51.4048 229.287 50.7231 229.18 50.0391 229.2V229.17Z" fill="#E70000"/>
<path d="M49.5768 229.086C49.5649 229.068 49.5586 229.047 49.5586 229.026C49.5586 229.005 49.5649 228.984 49.5768 228.966C49.6128 228.918 50.3748 227.808 51.1848 227.658C51.2994 227.636 51.4174 227.636 51.5317 227.66C51.6461 227.684 51.7546 227.73 51.8508 227.796C52.1208 227.982 52.1328 228.174 52.0788 228.3C51.8988 228.84 50.3328 229.206 49.6788 229.152C49.6633 229.158 49.6463 229.158 49.6308 229.152C49.6049 229.138 49.5856 229.114 49.5768 229.086ZM51.6828 227.958C51.5547 227.882 51.4028 227.856 51.2568 227.886C50.7227 228.083 50.2619 228.439 49.9368 228.906C50.6568 228.906 51.7368 228.522 51.8868 228.216C51.8868 228.186 51.9228 228.102 51.7428 227.982H51.6828V227.958Z" fill="#E70000"/>
<path d="M49.5176 228.271L44.7716 225.643C44.6848 225.594 44.584 225.577 44.4858 225.593C44.3877 225.609 44.298 225.659 44.2316 225.733L41.2316 229.123C41.1677 229.194 41.1185 229.276 41.0866 229.366C41.0547 229.456 41.0409 229.552 41.0459 229.647C41.0509 229.742 41.0747 229.835 41.1158 229.922C41.157 230.008 41.2146 230.085 41.2856 230.149L41.4116 230.239C43.1396 231.157 44.7176 231.907 46.8476 233.089C49.3616 234.481 48.5576 234.427 51.4916 236.089C53.2916 237.103 54.7076 235.255 54.0056 234.739C50.7896 232.393 51.0056 231.139 50.3576 229.171C50.1921 228.781 49.8947 228.463 49.5176 228.271Z" fill="#263238"/>
<path d="M106.2 109.945C106.2 109.945 108 109.345 107.34 106.735C107.34 106.735 108.402 104.935 108.234 103.981C108.234 103.981 113.634 100.867 110.55 97.4526C107.466 94.0386 101.868 96.3186 99.3897 100.681C99.3897 100.681 86.2197 104.965 95.3877 113.017C104.31 120.883 106.2 109.945 106.2 109.945Z" fill="#263238"/>
<path d="M100.763 102.51C100.763 102.51 98.7052 97.9922 101.795 94.5782C104.885 91.1642 99.7432 99.3902 100.763 102.51Z" fill="#263238"/>
<path d="M106.2 109.945C106.251 109.928 106.301 109.908 106.35 109.885C106.35 106.501 105.048 102.445 100.056 99.6846C99.8158 100.008 99.5935 100.345 99.3897 100.693C99.3897 100.693 99.0117 100.819 98.4297 101.059C100.158 102.895 104.904 108.973 99.5697 115.615C104.916 117.283 106.2 109.945 106.2 109.945Z" fill="#E70000"/>
<path d="M106.41 108.361C107.023 109.032 107.345 109.919 107.304 110.827C107.238 112.027 106.062 112.261 105.126 111.613C104.28 111.013 103.296 109.693 103.824 108.613C103.943 108.383 104.117 108.187 104.331 108.042C104.545 107.898 104.792 107.809 105.049 107.784C105.306 107.759 105.565 107.798 105.803 107.899C106.041 108 106.25 108.158 106.41 108.361Z" fill="#FF8B7B"/>
<path d="M111.156 107.25L112.128 107.202C112.128 107.202 111.492 107.808 111.156 107.25Z" fill="#263238"/>
<path opacity="0.2" d="M102.258 116.202C102.745 117.186 103.494 118.017 104.424 118.602C104.634 118.058 104.816 117.503 104.97 116.94C104.03 116.852 103.113 116.602 102.258 116.202Z" fill="black"/>
</svg>
