<svg width="45" height="44" viewBox="0 0 45 44" fill="none" xmlns="http://www.w3.org/2000/svg">
<path d="M18 42.25H27M38.25 42.25V6.25C38.25 5.05653 37.7759 3.91193 36.932 3.06802C36.0881 2.22411 34.9435 1.75 33.75 1.75H11.25C10.0565 1.75 8.91193 2.22411 8.06802 3.06802C7.22411 3.91193 6.75 5.05653 6.75 6.25V42.25H38.25ZM38.25 42.25H42.75H38.25ZM38.25 42.25H27H38.25ZM6.75 42.25H2.25H6.75ZM6.75 42.25H18H6.75ZM15.75 10.75H18H15.75ZM15.75 19.75H18H15.75ZM27 10.75H29.25H27ZM27 19.75H29.25H27ZM18 42.25V31C18 30.4033 18.2371 29.831 18.659 29.409C19.081 28.9871 19.6533 28.75 20.25 28.75H24.75C25.3467 28.75 25.919 28.9871 26.341 29.409C26.7629 29.831 27 30.4033 27 31V42.25H18Z" stroke="white" stroke-width="3" stroke-linecap="round" stroke-linejoin="round"/>
</svg>
