<svg width="40" height="40" viewBox="0 0 40 40" fill="none" xmlns="http://www.w3.org/2000/svg">
<path d="M29 11V29V11ZM20 17.75V29V17.75ZM11 24.5V29V24.5ZM6.5 38H33.5C34.6935 38 35.8381 37.5259 36.682 36.682C37.5259 35.8381 38 34.6935 38 33.5V6.5C38 5.30653 37.5259 4.16193 36.682 3.31802C35.8381 2.47411 34.6935 2 33.5 2H6.5C5.30653 2 4.16193 2.47411 3.31802 3.31802C2.47411 4.16193 2 5.30653 2 6.5V33.5C2 34.6935 2.47411 35.8381 3.31802 36.682C4.16193 37.5259 5.30653 38 6.5 38Z" stroke="white" stroke-width="3" stroke-linecap="round" stroke-linejoin="round"/>
</svg>
