<svg width="45" height="44" viewBox="0 0 45 44" fill="none" xmlns="http://www.w3.org/2000/svg">
<path d="M42.75 26.8238C36.3161 29.4253 29.4399 30.7585 22.5 30.75C15.3382 30.75 8.505 29.355 2.25 26.8238M22.5 24H22.5225M31.5 10.5V6C31.5 4.80653 31.0259 3.66193 30.182 2.81802C29.3381 1.97411 28.1935 1.5 27 1.5H18C16.8065 1.5 15.6619 1.97411 14.818 2.81802C13.9741 3.66193 13.5 4.80653 13.5 6V10.5H31.5ZM6.75 42H38.25C39.4435 42 40.5881 41.5259 41.432 40.682C42.2759 39.8381 42.75 38.6935 42.75 37.5V15C42.75 13.8065 42.2759 12.6619 41.432 11.818C40.5881 10.9741 39.4435 10.5 38.25 10.5H6.75C5.55653 10.5 4.41193 10.9741 3.56802 11.818C2.72411 12.6619 2.25 13.8065 2.25 15V37.5C2.25 38.6935 2.72411 39.8381 3.56802 40.682C4.41193 41.5259 5.55653 42 6.75 42Z" stroke="white" stroke-width="3" stroke-linecap="round" stroke-linejoin="round"/>
</svg>
