<svg width="24" height="24" viewBox="0 0 24 24" fill="none" xmlns="http://www.w3.org/2000/svg">
<path d="M0.244141 0.245117H6.12169C8.08087 2.2043 10.0401 4.16348 11.9992 6.12267C13.9584 4.16348 15.9176 2.2043 17.8768 0.245117C19.836 0.245117 21.7952 0.245117 23.7543 0.245117" stroke="#E70000" stroke-width="1.2" stroke-miterlimit="10"/>
<path d="M0.244141 3.18359H6.12169L10.5299 7.59176V23.755H0.244141V20.8162H7.59108C7.59108 16.8979 7.59108 12.9795 7.59108 9.06115C6.61149 8.08155 5.6319 7.10196 4.6523 6.12237H0.244141V17.8775H4.6523V10.5305H3.18292" stroke="black" stroke-width="1.2" stroke-miterlimit="10"/>
<path d="M13.4688 7.59176L17.8769 3.18359H23.7545V23.755H20.8157V6.12237H17.8769L13.4688 10.5305H17.8769V23.755H13.4688V13.4693H14.9381" stroke="#777777" stroke-width="1.2" stroke-miterlimit="10"/>
</svg>
