<svg width="40" height="33" viewBox="0 0 40 33" fill="none" xmlns="http://www.w3.org/2000/svg">
<path d="M27.9391 31.1813V27.9389C27.9391 26.219 27.2559 24.5696 26.0397 23.3534C24.8236 22.1373 23.1742 21.4541 21.4543 21.4541H8.48477C6.7649 21.4541 5.11548 22.1373 3.89935 23.3534C2.68322 24.5696 2 26.219 2 27.9389V31.1813" stroke="black" stroke-width="3.24239" stroke-linecap="round" stroke-linejoin="round"/>
<path d="M14.9694 14.9695C18.5508 14.9695 21.4542 12.0662 21.4542 8.48477C21.4542 4.90333 18.5508 2 14.9694 2C11.3879 2 8.48462 4.90333 8.48462 8.48477C8.48462 12.0662 11.3879 14.9695 14.9694 14.9695Z" stroke="black" stroke-width="3.24239" stroke-linecap="round" stroke-linejoin="round"/>
<path d="M37.6663 31.1814V27.9391C37.6652 26.5022 37.187 25.1065 36.3067 23.9709C35.4264 22.8353 34.1939 22.0242 32.8027 21.665" stroke="#001AFF" stroke-opacity="0.7" stroke-width="3.24239" stroke-linecap="round" stroke-linejoin="round"/>
<path d="M26.3184 2.21094C27.7133 2.56809 28.9496 3.37933 29.8325 4.51678C30.7154 5.65422 31.1947 7.05316 31.1947 8.49306C31.1947 9.93295 30.7154 11.3319 29.8325 12.4693C28.9496 13.6068 27.7133 14.418 26.3184 14.7752" stroke="#001AFF" stroke-opacity="0.7" stroke-width="3.24239" stroke-linecap="round" stroke-linejoin="round"/>
</svg>
