<svg width="430" height="430" viewBox="0 0 430 430" fill="none" xmlns="http://www.w3.org/2000/svg">
<path d="M10 10H112.5C146.667 44.1667 180.833 78.3333 215 112.5C249.167 78.3333 283.333 44.1667 317.5 10C351.667 10 385.833 10 420 10" stroke="white" stroke-width="19" stroke-miterlimit="10"/>
<path d="M10 61.251H112.5L189.375 138.126V420.001H10V368.751H138.125C138.125 300.418 138.125 232.084 138.125 163.751C121.042 146.668 103.958 129.584 86.875 112.501H10V317.501H86.875V189.376H61.25" stroke="white" stroke-width="19" stroke-miterlimit="10"/>
<path d="M240.627 138.126L317.502 61.251H420.002V420.001H368.752V112.501H317.502L240.627 189.376H317.502V420.001H240.627V240.626H266.252" stroke="white" stroke-width="19" stroke-miterlimit="10"/>
</svg>
